<?xml version="1.0" encoding="UTF-8"?>
<svg width="64px" height="66px" viewBox="0 0 64 66" version="1.1" xmlns="http://www.w3.org/2000/svg" xmlns:xlink="http://www.w3.org/1999/xlink">
    <!-- Generator: Sketch 52.5 (67469) - http://www.bohemiancoding.com/sketch -->
    <title>worlds-small</title>
    <desc>Created with Sketch.</desc>
    <g id="Page-1" stroke="none" stroke-width="1" fill="none" fill-rule="evenodd">
        <g id="Desktop-HD" transform="translate(-329.000000, -110.000000)" fill="#FFFFFF">
            <g id="worlds-small" transform="translate(329.000000, 110.000000)">
                <path d="M23.6628133,31.7938322 C21.0234271,32.1416583 18.4519693,32.4804818 15.8052174,32.8299447 C16.2578005,33.6058015 16.6743734,34.3186404 17.1146803,35.0740368 C15.8584143,36.2738322 14.5996931,37.4752644 13.2984143,38.7192542 C9.71375959,33.5967989 7.29943734,28.0471314 6.38363171,21.8689217 C7.30189258,23.0261596 8.27007673,24.1277452 9.51324808,25.1401237 C7.79785166,20.8941902 7.06537084,16.5852388 7.0342711,12.0913258 C7.20122762,12.0815048 7.34363171,12.0667734 7.48685422,12.065955 C8.50987212,12.0643181 9.53289003,12.0504051 10.5550895,12.0733207 C10.8988235,12.0815048 11.0936061,11.9816583 11.2613811,11.6731161 C11.7949872,10.6910189 12.3629668,9.72774523 12.9186701,8.75710585 C12.9571355,8.68999587 13.0005115,8.62615955 13.0970844,8.47229766 C13.191202,9.32099331 13.2591304,10.0739345 13.3597954,10.8219652 C13.8050128,14.1398168 14.5391304,17.3741902 16.2594373,20.2975662 C16.6760102,21.0054946 17.2153453,21.6422209 17.6982097,22.3116839 C17.7456777,22.286313 17.7931458,22.2617606 17.8397954,22.2363897 C17.7865985,22.0268757 17.7358568,21.8165432 17.6785678,21.6078475 C16.869156,18.6476429 16.3658312,15.647336 16.4386701,12.5643693 C16.448491,12.1330649 16.5876215,12.0536787 16.9812788,12.0577708 C18.808798,12.0757759 20.6363171,12.0626813 22.4638363,12.0610445 C22.6111509,12.0610445 22.7576471,12.0610445 22.9434271,12.0610445 C22.9467008,10.8064153 23.1357545,9.6287171 23.693913,8.54022605 C23.8723274,8.19239996 24.1063939,7.87239996 24.343734,7.49429255 C25.5058824,8.40682452 26.6254731,9.28661991 27.7638875,10.1803284 C28.5364706,8.11055853 29.9596931,6.88375546 32.1653197,6.95986799 C34.196624,7.02943321 35.5281841,8.21040508 36.2336573,10.1844204 C37.3671611,9.29562247 38.4842967,8.41910073 39.6358056,7.51557132 C40.7144757,8.83567362 41.0451151,10.3603795 41.0623018,12.036492 C41.2292583,12.0446762 41.3863939,12.0594076 41.5435294,12.0594076 C43.3710486,12.0626813 45.1985678,12.0749575 47.026087,12.0577708 C47.4181074,12.0544972 47.5547826,12.1289729 47.5646036,12.5660061 C47.6349872,15.6219652 47.1431202,18.5969012 46.342711,21.531735 C46.285422,21.7420675 46.2305882,21.9532184 46.1773913,22.1643693 C46.1716624,22.1872849 46.1872123,22.215111 46.2150384,22.3395099 C46.5784143,21.9000214 46.9270588,21.5243693 47.2225064,21.11107 C48.2414322,19.6878475 48.9084399,18.0943948 49.4404092,16.4379243 C50.2252685,13.9974128 50.6320205,11.4856992 50.8456266,8.93797541 C50.8521739,8.85613398 50.8587212,8.77429255 50.8742711,8.69490636 C50.8816368,8.65807771 50.9094629,8.62534114 50.9577494,8.53695239 C51.1844501,8.9314281 51.3931458,9.29234881 51.601023,9.65490636 C52.0012276,10.3530138 52.4096164,11.0462107 52.7942711,11.7525023 C52.9219437,11.9873872 53.0692583,12.0774128 53.339335,12.0733207 C54.3893606,12.0577708 55.4393862,12.0667734 56.4894118,12.0684102 C56.6350895,12.0684102 56.7807673,12.0806864 56.9706394,12.0888706 C56.9436317,16.5680521 56.2136061,20.8753667 54.5743223,25.0329115 C55.7176471,24.1334741 56.6776471,23.0621698 57.5590793,21.8975662 C58.0689514,24.0508143 53.7780051,34.9725534 51.3293095,37.737157 C51.0674169,37.5096378 50.8030691,37.2813002 50.5403581,37.0529626 C49.7587724,36.3728603 48.9820972,35.6862107 48.191509,35.0159294 C47.9729923,34.8309677 47.9468031,34.68529 48.1031202,34.4348552 C48.5778005,33.6720931 49.0230179,32.8913258 49.5238875,32.0418117 C46.9442455,31.700533 44.4210742,31.3658015 41.8168798,31.0212491 C42.2989258,30.4090752 42.7335038,29.8574639 43.1680818,29.3058526 C43.6673146,28.6724 43.6689514,28.6715815 43.2638363,27.9677452 C41.7407673,25.324267 40.616266,22.4999191 39.4614834,19.6870291 C38.8984143,18.3145483 38.2976982,16.95107 37.6102302,15.6375151 C36.8540153,14.1921954 35.7835294,13.0325023 34.1696164,12.4817094 C31.9402558,11.7214025 29.9056777,12.3008399 28.4137084,14.128359 C27.233555,15.5736787 26.49289,17.2579754 25.7538619,18.9447273 C24.5884399,21.6037555 23.4336573,24.2668757 22.261688,26.9226301 C22.0587212,27.382579 21.8230179,27.8343437 21.5513043,28.2574639 C21.3647059,28.548001 21.4375448,28.7378731 21.6184143,28.9776685 C22.2502302,29.8165432 22.8664962,30.6660573 23.4868542,31.5131161 C23.5310486,31.5736787 23.5703325,31.6448808 23.6628133,31.7938322 Z" id="Path"></path>
                <path d="M0.00208779164,6.60787724 C0.160041756,6.59560102 0.278711833,6.57759591 0.398200324,6.57759591 C3.00321311,6.57595908 5.6082259,6.56450128 8.21242027,6.58823529 C8.6199906,6.59232737 8.81313638,6.44910486 9.00055326,6.11682864 C10.1185072,4.13381074 11.2585584,2.16225064 12.3912438,0.18741688 C12.4182515,0.140767263 12.4493512,0.09657289 12.5107323,0.000818414322 C13.0165123,0.576163683 13.5051057,1.13514066 13.9961543,1.6916624 C15.3678167,3.24501279 16.7402975,4.79754476 18.1135967,6.34925831 C18.4851568,6.76910486 19.3935967,6.64634271 19.7201441,6.20276215 C20.6146709,4.98496164 21.5411159,3.79007673 22.4675609,2.59601023 C22.8260264,2.13442455 23.2205021,1.69984655 23.6223435,1.22434783 C24.263162,1.71867008 24.8867937,2.19826087 25.5087886,2.68030691 C25.8754382,2.96429668 26.2560008,3.23273657 26.5989164,3.5429156 C26.8436223,3.76470588 27.0195814,3.76388747 27.2994791,3.58547315 C28.8258218,2.61237852 30.5264868,2.15242967 32.3139036,2.23672634 C33.886896,2.31038363 35.4156939,2.70649616 36.747254,3.62393862 C36.9739548,3.78025575 37.1081747,3.75324808 37.3103231,3.59365729 C38.3145175,2.80061381 39.3318065,2.02475703 40.37774,1.2169821 C41.098763,2.08531969 41.8246965,2.9143734 42.4998883,3.78352941 C43.1423435,4.61094629 43.7250545,5.48501279 44.3535967,6.32306905 C44.4485328,6.44910486 44.6408602,6.54240409 44.8020878,6.57186701 C45.3643384,6.6741688 45.7727272,6.47856777 46.1680213,6.01861893 C47.7827528,4.13544757 49.4498627,2.29647059 51.0973308,0.44112532 C51.214364,0.309360614 51.3313973,0.177595908 51.4893512,0 C51.7381492,0.423120205 51.9738525,0.811867008 52.1989164,1.20634271 C53.1523691,2.87590793 54.1107323,4.54219949 55.0461799,6.22076726 C55.2033154,6.5031202 55.3768192,6.58741688 55.6878167,6.58578005 C58.3198372,6.57186701 60.9518576,6.57595908 63.5838781,6.57595908 C63.7033666,6.57595908 63.8236735,6.59150895 63.980809,6.60296675 C63.980809,7.35672634 64.0135456,8.09002558 63.9750801,8.81923274 C63.8261287,11.6370332 63.7074586,14.4589258 63.4758474,17.270179 C63.2041338,20.5642967 62.5567681,23.7986701 61.7244407,26.9986701 C60.4239804,32.0016368 58.2895558,36.6142199 55.3211671,40.8421483 C55.2753359,40.9076215 55.2213205,40.9681841 55.1337502,41.0778517 C54.8202975,40.8036829 54.519121,40.5376982 54.2154893,40.2749872 C53.9184049,40.0171867 53.6188653,39.7626598 53.3070494,39.4950384 C53.8013717,38.7069054 54.2866914,37.9523274 54.7531875,37.18711 C57.4965123,32.687468 59.2520111,27.8170844 60.2324714,22.6504348 C61.0566146,18.30711 61.349607,13.9195908 61.3864356,9.5083376 C61.387254,9.37493606 61.3864356,9.24235294 61.3864356,9.04920716 C61.0246965,9.04920716 60.7022412,9.04920716 60.3789676,9.04920716 C58.3329318,9.05084399 56.2877144,9.04511509 54.2416786,9.06066496 C53.9257707,9.0631202 53.7563589,8.95590793 53.6033154,8.68173913 C52.8315507,7.30107417 52.0385072,5.93268542 51.2520111,4.56102302 C51.1922668,4.4570844 51.1227016,4.35887468 51.0351313,4.22219949 C50.1741594,5.21329923 49.3361031,6.17820972 48.4980469,7.14393862 C48.0151824,7.69964194 47.5413205,8.26434783 47.0429062,8.80531969 C46.9291466,8.92808184 46.7294535,9.03529412 46.5665891,9.03856777 C45.4486351,9.05902813 44.3298627,9.04184143 43.2119088,9.05575448 C42.9590187,9.05902813 42.8534433,8.95181586 42.7683282,8.73575448 C42.1512438,7.17421995 41.1265891,5.88930946 39.9734433,4.63468031 C38.9766146,5.41790281 37.9855149,6.19703325 36.972318,6.99335038 C35.5990187,5.55867008 33.9842873,4.68378517 31.9816274,4.68460358 C29.9912438,4.68624041 28.3904254,5.56112532 27.0097604,6.99171355 C26.0096581,6.20521739 25.0185584,5.42608696 24.0135456,4.63631714 C22.8759497,5.86475703 21.8529318,7.13411765 21.2407579,8.68092072 C21.1253614,8.97227621 20.9714996,9.06230179 20.6678678,9.05657289 C19.6456684,9.03856777 18.621832,9.03693095 17.5996325,9.0573913 C17.2673563,9.06393862 17.0488397,8.96 16.8335967,8.70792839 C15.5576888,7.21677749 14.2654126,5.73953964 12.9379446,4.21237852 C12.8200929,4.41534527 12.7194279,4.58639386 12.6203998,4.75907928 C11.9280213,5.96542199 11.2020878,7.15375959 10.5588141,8.38547315 C10.2764612,8.9256266 9.94254815,9.08194373 9.35083459,9.07048593 C7.26469649,9.03120205 5.17773997,9.05575448 3.09160186,9.05575448 C2.94510569,9.05575448 2.79942795,9.05575448 2.60710058,9.05575448 C2.60710058,9.63028133 2.59809802,10.1573402 2.60873741,10.6852174 C2.66930007,13.7272634 2.85835378,16.7603069 3.27328984,19.7769821 C4.07206222,25.5869054 5.71380135,31.1242967 8.66091132,36.2262916 C9.50469649,37.6871611 10.445873,39.0923785 11.3649522,40.5597954 C10.8166146,41.0786701 10.2363589,41.6278261 9.62172974,42.2097187 C9.45722846,41.9862916 9.31318754,41.7947826 9.17323869,41.6 C6.09518242,37.3196931 3.78643562,32.6670077 2.39922334,27.5699233 C1.1912438,23.1324808 0.47513127,18.6156522 0.252522574,14.0243478 C0.140399812,11.7098721 0.0831108095,9.39212276 0.00126937732,7.07601023 C-0.00200427997,6.93033248 0.00208779164,6.7830179 0.00208779164,6.60787724 Z" id="Path"></path>
                <path d="M55.5187724,43.0699725 C54.352532,43.2295633 53.2353964,43.3965199 52.1141688,43.519282 C51.9390281,43.5381055 51.7147826,43.3834252 51.5576471,43.2549342 C48.4689514,40.720305 45.3843478,38.1815838 42.3062916,35.63386 C41.4060358,34.8882846 40.3993862,34.5273638 39.2208696,34.5420953 C36.8892072,34.5707398 34.5567263,34.545369 32.2242455,34.5576452 C31.9402558,34.559282 31.7872123,34.4569802 31.6349872,34.2310979 C30.2870588,32.2210723 28.728798,30.4017372 26.6639386,29.095548 C25.8651662,28.5905863 24.983734,28.2157526 24.0613811,27.7402539 C24.1497698,27.3515071 24.248798,26.8498191 24.3797442,26.3563152 C24.9010742,24.3872104 25.4895141,22.4344738 26.6704859,20.7444482 C27.099335,20.1306375 27.6460358,19.5610211 28.2442967,19.1108933 C29.3467008,18.2818395 30.5538619,18.3391285 31.7487468,18.9758549 C31.8289514,19.0184124 31.9116113,19.0585147 32.0491049,19.1272615 C32.0491049,17.231814 32.0491049,15.3871081 32.0491049,13.5055736 C33.2038875,13.4761106 34.1769821,13.8214815 35.0174936,14.5359572 C35.9455754,15.3240902 36.5348338,16.3577475 37.0013299,17.4544227 C37.8385678,19.4235275 38.5931458,21.4286426 39.4590281,23.3846528 C40.181688,25.0157526 41.0082864,26.6002027 41.8070588,28.1961106 C41.9216368,28.4252667 41.9273657,28.5627603 41.7612276,28.7665454 C40.9861893,29.7175429 40.2299744,30.6849086 39.4680307,31.6473638 C39.3845524,31.7529393 39.3100767,31.8650621 39.1864962,32.0361106 C41.8790793,32.3921209 44.5176471,32.7407654 47.2208696,33.097594 C46.9205115,33.6148319 46.6659847,34.0755991 46.3885422,34.5232718 C46.2117647,34.80808 46.2232225,34.9946784 46.5039386,35.2369291 C49.3855754,37.7208165 52.2524808,40.2210723 55.1234783,42.7180544 C55.2560614,42.831814 55.383734,42.9488472 55.5187724,43.0699725 Z M28.308133,21.2518651 C28.3834271,21.9049598 28.4603581,22.4696656 28.5094629,23.0360083 C28.5577494,23.5966222 28.7697187,24.0655736 29.1273657,24.5058805 C29.8974936,25.4519674 30.4040921,26.525727 30.5612276,27.7525301 C30.5808696,27.906392 30.6774425,28.092172 30.7985678,28.1838344 C31.5367775,28.7428114 32.582711,28.7428114 33.3143734,28.1903817 C33.4289514,28.1036298 33.5386189,27.9407654 33.5549872,27.8024534 C33.7080307,26.4995378 34.2670077,25.379947 35.0829668,24.3798447 C35.3702302,24.0279265 35.5363683,23.6506375 35.5838363,23.2046017 C35.6501279,22.5752411 35.7311509,21.9475173 35.8129923,21.2526835 C33.2775448,21.8002027 30.8321228,21.7993843 28.308133,21.2518651 Z M40.1276726,29.0366222 C39.9050639,28.6396912 39.7012788,28.2754968 39.5007673,27.9178498 C37.5742199,28.5815838 33.8422506,31.6956503 33.2579028,33.1319674 C35.2523785,31.2496145 37.578312,29.9818907 40.1276726,29.0366222 Z" id="Shape" fill-rule="nonzero"></path>
                <path d="M24.8855758,45.3621691 C24.8855758,44.1075399 24.8921231,42.8537292 24.8798469,41.5991001 C24.8773917,41.3470284 24.9625068,41.2070796 25.1777497,41.083499 C27.3776474,39.823141 29.569361,38.5496883 31.7725323,37.2950591 C31.9034786,37.2205834 32.1506397,37.2181282 32.2807676,37.2917855 C34.483939,38.5464146 36.6756525,39.8206857 38.8747318,41.0818622 C39.0916116,41.2062612 39.1701794,41.3503021 39.169361,41.5999185 C39.15954,44.1222714 39.1579032,46.6446243 39.1644505,49.1669773 C39.1652689,49.4149568 39.0916116,49.5573609 38.8706397,49.6842151 C36.6830183,50.9380259 34.5043993,52.2082049 32.3143226,53.4571052 C32.1727369,53.5381282 31.9092075,53.5528596 31.7725323,53.4751103 C29.5808188,52.2278469 27.4038367,50.956031 25.2145784,49.7046755 C24.9657804,49.5622714 24.8823022,49.403499 24.8855758,49.1244197 C24.8994889,47.8697906 24.8913047,46.6159798 24.8913047,45.3613507 C24.8888495,45.3621691 24.8872126,45.3621691 24.8855758,45.3621691 Z M31.9902305,44.9947011 C31.9902305,43.1737292 31.9902305,41.4436013 31.9902305,39.6619134 C30.4876218,40.4475911 29.0332996,41.207898 27.5184147,42.0001231 C29.0267523,43.0108648 30.4802561,43.9839594 31.9902305,44.9947011 Z" id="Shape" fill-rule="nonzero"></path>
                <path d="M29.7761087,36.4439898 C29.2024003,36.7795396 28.6303286,37.1175448 28.0549834,37.449821 C26.5441905,38.3230691 25.0366714,39.2004092 23.5176944,40.0589258 C23.2648043,40.2021483 23.187055,40.3650128 23.1919655,40.6424552 C23.2091522,41.528798 23.2173363,42.4151407 23.1911471,43.300665 C23.1837813,43.5543734 23.1076688,43.8457289 22.9636279,44.0486957 C20.9192289,46.9106905 18.8723747,49.771867 16.7960575,52.6101279 C15.4931419,54.3909974 13.209766,54.8460358 11.3339604,53.7534527 C9.54326982,52.7116113 8.81897314,50.4699744 9.71268158,48.5188747 C9.95411381,47.9909974 10.3420422,47.4778517 10.7864412,47.1038363 C13.6762621,44.6731458 16.5996381,42.2825575 19.5123747,39.8796931 C20.7007123,38.8992327 21.8906867,37.9212276 23.0765691,36.9374936 C23.5586151,36.5381074 24.1053159,36.3384143 24.7314028,36.3392327 C26.3543184,36.3408696 27.9764156,36.3375959 29.5993312,36.3375959 C29.6492545,36.3375959 29.6991777,36.3506905 29.749101,36.3580563 C29.7581036,36.3867008 29.7671061,36.4153453 29.7761087,36.4439898 Z" id="Path"></path>
                <path d="M34.3987724,36.3375959 C35.4160614,36.3375959 36.4341688,36.3375959 37.4514578,36.3375959 C38.0922762,36.3375959 38.7330946,36.3400512 39.373913,36.3384143 C39.9950895,36.3367775 40.5483376,36.5102813 41.0361125,36.9137596 C44.7893606,40.0122762 48.5507928,43.1009719 52.2991304,46.2052174 C52.9055754,46.7069054 53.5365729,47.2102302 54.0235294,47.818312 C55.2675192,49.3749361 55.0383632,51.8187212 53.5995908,53.1502813 C51.978312,54.6504348 49.5648082,54.7404604 48.023734,53.3172379 C47.5785166,52.9055754 47.2085934,52.4038875 46.8493095,51.9103836 C44.981688,49.3413811 43.13289,46.7592839 41.2636317,44.1910997 C41.0336573,43.8751918 40.9321739,43.5617391 40.9428133,43.1746292 C40.9657289,42.3300256 40.9419949,41.4837852 40.96,40.6391816 C40.9657289,40.3576471 40.8740665,40.2029668 40.6252685,40.0605627 C38.648798,38.9319693 36.6813299,37.7861893 34.7122251,36.6453197 C34.5968286,36.5782097 34.4863427,36.5045524 34.3734015,36.4333504 C34.3815857,36.3997954 34.3905882,36.3686957 34.3987724,36.3375959 Z" id="Path"></path>
                <path d="M41.0811253,50.660665 C37.1380051,55.1627621 34.1581586,60.2262916 32.104757,65.8569821 C32.0982097,65.7309463 32.0859335,65.6049105 32.0859335,65.4796931 C32.0851151,62.3451662 32.0867519,59.2106394 32.0818414,56.0761125 C32.0818414,55.8428645 32.1153964,55.6791816 32.3486445,55.5457801 C35.1721739,53.9245013 37.9883376,52.2901279 40.8069565,50.6598465 C40.8626087,50.62711 40.9248082,50.6050128 40.983734,50.5780051 C41.0164706,50.6058312 41.0483887,50.6328389 41.0811253,50.660665 Z" id="Path"></path>
            </g>
        </g>
    </g>
</svg>